<?xml version="1.0" encoding="UTF-8" standalone="no"?>
<svg
   xmlns:dc="http://purl.org/dc/elements/1.1/"
   xmlns:cc="http://creativecommons.org/ns#"
   xmlns:rdf="http://www.w3.org/1999/02/22-rdf-syntax-ns#"
   xmlns:svg="http://www.w3.org/2000/svg"
   xmlns="http://www.w3.org/2000/svg"
   xmlns:sodipodi="http://sodipodi.sourceforge.net/DTD/sodipodi-0.dtd"
   xmlns:inkscape="http://www.inkscape.org/namespaces/inkscape"
   inkscape:version="1.0 (4035a4fb49, 2020-05-01)"
   sodipodi:docname="Fender_flytende.svg"
   id="svg857"
   viewBox="-1.15 -1.02 33.072918 41.539583"
   version="1.1"
   height="157"
   width="125">
  <metadata
     id="metadata863">
    <rdf:RDF>
      <cc:Work
         rdf:about="">
        <dc:format>image/svg+xml</dc:format>
        <dc:type
           rdf:resource="http://purl.org/dc/dcmitype/StillImage" />
        <dc:title />
      </cc:Work>
    </rdf:RDF>
  </metadata>
  <defs
     id="defs861" />
  <sodipodi:namedview
     units="px"
     inkscape:current-layer="svg857"
     inkscape:window-maximized="1"
     inkscape:window-y="-9"
     inkscape:window-x="-9"
     inkscape:cy="65.419928"
     inkscape:cx="67.825752"
     inkscape:zoom="10.469813"
     showgrid="false"
     id="namedview859"
     inkscape:window-height="1721"
     inkscape:window-width="3200"
     inkscape:pageshadow="2"
     inkscape:pageopacity="0"
     guidetolerance="10"
     gridtolerance="10"
     objecttolerance="10"
     borderopacity="1"
     bordercolor="#666666"
     pagecolor="#ffffff"
     inkscape:document-rotation="0" />
  <path
     id="path5556"
     d="M 5.4710195,19.677003 5.3699352,17.781673 5.7490011,15.229296 6.835657,12.778002 8.4277341,10.781588 10.777943,9.290595 14.49279,8.45665 l 3.007257,0.1768973 2.805089,0.7834032 2.021685,1.4404505 1.415179,1.693162 1.137198,1.819516 0.606505,2.981986 -0.05054,2.476565 z"
     style="fill:#bfbfbf;stroke:#000000;stroke-width:0.264583px;stroke-linecap:butt;stroke-linejoin:miter;stroke-opacity:1;fill-opacity:1" />
  <path
     d="m 11.417708,19.749792 c 0,-2.191889 1.776753,-3.968751 3.96875,-3.968751 2.191997,0 3.96875,1.776841 3.96875,3.968751 0,2.192108 -1.776753,3.968749 -3.96875,3.968749 -2.191997,0 -3.96875,-1.776841 -3.96875,-3.968749 z"
     style="fill:#000000;fill-opacity:1;stroke:none;stroke-width:1.5965;stroke-miterlimit:4;stroke-dasharray:none"
     id="path10" />
  <path
     id="path10-1"
     style="fill:#ffffff;fill-opacity:1;stroke:none;stroke-width:1.06434;stroke-miterlimit:3.864;stroke-dasharray:none"
     d="m 12.740625,19.749792 c 0,-1.461259 1.184501,-2.645834 2.645833,-2.645834 1.461331,0 2.645833,1.184561 2.645833,2.645834 0,1.461405 -1.184502,2.645833 -2.645833,2.645833 -1.461332,0 -2.645833,-1.184561 -2.645833,-2.645833 z" />
  <rect
     y="19.088333"
     x="1.4958334"
     height="1.3229166"
     width="10.583334"
     id="rect1464"
     style="fill:#000000;fill-opacity:1;stroke:none;stroke-width:1.03995;stroke-miterlimit:4;stroke-dasharray:none;stroke-opacity:1" />
  <rect
     style="fill:#000000;fill-opacity:1;stroke:none;stroke-width:1.03995;stroke-miterlimit:4;stroke-dasharray:none;stroke-opacity:1"
     id="rect1464-6"
     width="10.583334"
     height="1.3229166"
     x="18.69375"
     y="19.088333" />
  <path
     style="fill:none;stroke:#000000;stroke-width:1.32292;stroke-linecap:butt;stroke-linejoin:miter;stroke-miterlimit:4;stroke-dasharray:none;stroke-opacity:1"
     d="m 5.4645834,19.220625 c -1.1119975,-14.2876391 20.9109646,-14.4523299 19.8437506,0"
     id="path853"
     sodipodi:nodetypes="cc" />
</svg>
