<?xml version="1.0" encoding="UTF-8" standalone="no"?>
<svg
   xmlns:dc="http://purl.org/dc/elements/1.1/"
   xmlns:cc="http://creativecommons.org/ns#"
   xmlns:rdf="http://www.w3.org/1999/02/22-rdf-syntax-ns#"
   xmlns:svg="http://www.w3.org/2000/svg"
   xmlns="http://www.w3.org/2000/svg"
   xmlns:sodipodi="http://sodipodi.sourceforge.net/DTD/sodipodi-0.dtd"
   xmlns:inkscape="http://www.inkscape.org/namespaces/inkscape"
   inkscape:version="1.0 (4035a4fb49, 2020-05-01)"
   sodipodi:docname="Kran_fastkran.svg"
   id="svg857"
   viewBox="-1.15 -1.02 35.718751 52.916666"
   version="1.1"
   height="200"
   width="135">
  <metadata
     id="metadata863">
    <rdf:RDF>
      <cc:Work
         rdf:about="">
        <dc:format>image/svg+xml</dc:format>
        <dc:type
           rdf:resource="http://purl.org/dc/dcmitype/StillImage" />
        <dc:title></dc:title>
      </cc:Work>
    </rdf:RDF>
  </metadata>
  <defs
     id="defs861" />
  <sodipodi:namedview
     units="px"
     inkscape:current-layer="svg857"
     inkscape:window-maximized="1"
     inkscape:window-y="-9"
     inkscape:window-x="-9"
     inkscape:cy="84.114598"
     inkscape:cx="21.118985"
     inkscape:zoom="5.4035523"
     showgrid="false"
     id="namedview859"
     inkscape:window-height="1721"
     inkscape:window-width="3200"
     inkscape:pageshadow="2"
     inkscape:pageopacity="0"
     guidetolerance="10"
     gridtolerance="10"
     objecttolerance="10"
     borderopacity="1"
     bordercolor="#666666"
     pagecolor="#ffffff"
     inkscape:document-rotation="0" />
  <rect
     y="3.4779167"
     x="15.386458"
     height="20.637501"
     width="2.6458333"
     id="rect7543-0"
     style="fill:#000000;fill-opacity:1;stroke-width:1.04215" />
  <path
     style="fill:#000000;fill-opacity:1;stroke:none;stroke-width:0.264583px;stroke-linecap:butt;stroke-linejoin:miter;stroke-opacity:1"
     d="M 11.417708,2.155 32.584376,-1.02 V 1.0966667 L 11.417708,5.5945834 Z"
     id="path7545"
     sodipodi:nodetypes="ccccc" />
  <path
     d="m 12.740625,25.438334 c 0,-2.191889 1.776753,-3.968751 3.96875,-3.968751 2.191997,0 3.96875,1.776841 3.96875,3.968751 0,2.192108 -1.776753,3.968749 -3.96875,3.968749 -2.191997,0 -3.96875,-1.776841 -3.96875,-3.968749 z"
     style="fill:#000000;fill-opacity:1;stroke:none;stroke-width:1.5965;stroke-miterlimit:4;stroke-dasharray:none"
     id="path10" />
  <path
     id="path10-1"
     style="fill:#ffffff;fill-opacity:1;stroke:none;stroke-width:1.06434;stroke-miterlimit:3.864;stroke-dasharray:none"
     d="m 14.063542,25.438334 c 0,-1.461259 1.184501,-2.645834 2.645833,-2.645834 1.461331,0 2.645833,1.184561 2.645833,2.645834 0,1.461405 -1.184502,2.645833 -2.645833,2.645833 -1.461332,0 -2.645833,-1.184561 -2.645833,-2.645833 z" />
  <rect
     style="fill:#000000;fill-opacity:1;stroke:none;stroke-width:1.29945"
     id="rect8738"
     width="1.3229166"
     height="5.8737502"
     x="29.938541"
     y="1.0966667" />
  <path
     sodipodi:nodetypes="cccccc"
     id="path850"
     d="M 31.162769,7.6271126 C 30.937489,7.5922165 30.810318,7.5792312 30.6,7.5789584 c -1.603748,0.011352 -3.253149,1.191407 -3.307291,3.3072916 0.03239,1.972824 1.534612,3.272932 3.307291,3.307292 2.096061,-0.04655 3.307445,-1.723355 3.307292,-3.307292 -0.0013,-0.499262 -0.142023,-1.070009 -0.343958,-1.4761103"
     style="fill:none;stroke:#000000;stroke-width:1.32292;stroke-linecap:butt;stroke-linejoin:miter;stroke-miterlimit:4;stroke-dasharray:none;stroke-opacity:1" />
</svg>
