<?xml version="1.0" encoding="UTF-8" standalone="no"?>
<svg
   xmlns:dc="http://purl.org/dc/elements/1.1/"
   xmlns:cc="http://creativecommons.org/ns#"
   xmlns:rdf="http://www.w3.org/1999/02/22-rdf-syntax-ns#"
   xmlns:svg="http://www.w3.org/2000/svg"
   xmlns="http://www.w3.org/2000/svg"
   xmlns:sodipodi="http://sodipodi.sourceforge.net/DTD/sodipodi-0.dtd"
   xmlns:inkscape="http://www.inkscape.org/namespaces/inkscape"
   inkscape:version="1.0 (4035a4fb49, 2020-05-01)"
   sodipodi:docname="Bøye.svg"
   id="svg857"
   viewBox="-1.15 -1.02 33.072918 41.539583"
   version="1.1"
   height="157"
   width="125">
  <metadata
     id="metadata863">
    <rdf:RDF>
      <cc:Work
         rdf:about="">
        <dc:format>image/svg+xml</dc:format>
        <dc:type
           rdf:resource="http://purl.org/dc/dcmitype/StillImage" />
        <dc:title></dc:title>
      </cc:Work>
    </rdf:RDF>
  </metadata>
  <defs
     id="defs861" />
  <sodipodi:namedview
     units="px"
     inkscape:current-layer="svg857"
     inkscape:window-maximized="1"
     inkscape:window-y="-9"
     inkscape:window-x="-9"
     inkscape:cy="84.114598"
     inkscape:cx="21.118985"
     inkscape:zoom="5.4035523"
     showgrid="false"
     id="namedview859"
     inkscape:window-height="1721"
     inkscape:window-width="3200"
     inkscape:pageshadow="2"
     inkscape:pageopacity="0"
     guidetolerance="10"
     gridtolerance="10"
     objecttolerance="10"
     borderopacity="1"
     bordercolor="#666666"
     pagecolor="#ffffff"
     inkscape:document-rotation="0" />
  <path
     id="path10-6"
     style="fill:#000000;fill-opacity:1;stroke:none;stroke-width:1.5965;stroke-miterlimit:4;stroke-dasharray:none"
     d="m 15.386458,2.948752 c 0,-2.19189 1.776753,-3.968752 3.96875,-3.968752 2.191997,0 3.96875,1.776841 3.96875,3.968752 0,2.1921073 -1.776753,3.9687493 -3.96875,3.9687493 -2.191997,0 -3.96875,-1.776842 -3.96875,-3.9687493 z" />
  <path
     d="m 16.709375,2.9487517 c 0,-1.46126 1.184501,-2.645835 2.645833,-2.645835 1.461331,0 2.645833,1.184561 2.645833,2.645835 0,1.4614036 -1.184502,2.6458316 -2.645833,2.6458316 -1.461332,0 -2.645833,-1.184561 -2.645833,-2.6458316 z"
     style="fill:#ffffff;fill-opacity:1;stroke:none;stroke-width:1.06434;stroke-miterlimit:3.864;stroke-dasharray:none"
     id="path10-1-3" />
  <path
     id="path1481"
     d="M 4.04359,20.07777 7.6697933,5.5430043 27.832027,10.56325 25.471576,20.133356"
     style="fill:none;stroke:#000000;stroke-width:2.64583;stroke-linecap:butt;stroke-linejoin:miter;stroke-miterlimit:4;stroke-dasharray:none;stroke-opacity:1" />
  <path
     d="m 11.417708,19.749792 c 0,-2.191889 1.776753,-3.968751 3.96875,-3.968751 2.191997,0 3.96875,1.776841 3.96875,3.968751 0,2.192108 -1.776753,3.968749 -3.96875,3.968749 -2.191997,0 -3.96875,-1.776841 -3.96875,-3.968749 z"
     style="fill:#000000;fill-opacity:1;stroke:none;stroke-width:1.5965;stroke-miterlimit:4;stroke-dasharray:none"
     id="path10" />
  <path
     id="path10-1"
     style="fill:#ffffff;fill-opacity:1;stroke:none;stroke-width:1.06434;stroke-miterlimit:3.864;stroke-dasharray:none"
     d="m 12.740625,19.749792 c 0,-1.461259 1.184501,-2.645834 2.645833,-2.645834 1.461331,0 2.645833,1.184561 2.645833,2.645834 0,1.461405 -1.184502,2.645833 -2.645833,2.645833 -1.461332,0 -2.645833,-1.184561 -2.645833,-2.645833 z" />
  <rect
     y="19.088333"
     x="-1.15"
     height="1.3229166"
     width="13.229167"
     id="rect1464"
     style="fill:#000000;fill-opacity:1;stroke:none;stroke-width:1.1627;stroke-miterlimit:4;stroke-dasharray:none;stroke-opacity:1" />
  <rect
     style="fill:#000000;fill-opacity:1;stroke:none;stroke-width:1.1627;stroke-miterlimit:4;stroke-dasharray:none;stroke-opacity:1"
     id="rect1464-6"
     width="13.229167"
     height="1.3229166"
     x="18.69375"
     y="19.088333" />
</svg>
