<?xml version="1.0" encoding="UTF-8" standalone="no"?>
<svg
   xmlns:dc="http://purl.org/dc/elements/1.1/"
   xmlns:cc="http://creativecommons.org/ns#"
   xmlns:rdf="http://www.w3.org/1999/02/22-rdf-syntax-ns#"
   xmlns:svg="http://www.w3.org/2000/svg"
   xmlns="http://www.w3.org/2000/svg"
   xmlns:sodipodi="http://sodipodi.sourceforge.net/DTD/sodipodi-0.dtd"
   xmlns:inkscape="http://www.inkscape.org/namespaces/inkscape"
   inkscape:version="1.0 (4035a4fb49, 2020-05-01)"
   sodipodi:docname="Drivstofftilkobling_graa_fast.svg"
   id="svg857"
   viewBox="-1.15 -1.02 26.458334 52.916666"
   version="1.1"
   height="200"
   width="100">
  <metadata
     id="metadata863">
    <rdf:RDF>
      <cc:Work
         rdf:about="">
        <dc:format>image/svg+xml</dc:format>
        <dc:type
           rdf:resource="http://purl.org/dc/dcmitype/StillImage" />
        <dc:title></dc:title>
      </cc:Work>
    </rdf:RDF>
  </metadata>
  <defs
     id="defs861" />
  <sodipodi:namedview
     units="px"
     inkscape:current-layer="svg857"
     inkscape:window-maximized="1"
     inkscape:window-y="-9"
     inkscape:window-x="-9"
     inkscape:cy="64.833476"
     inkscape:cx="58.5"
     inkscape:zoom="10.146315"
     showgrid="false"
     id="namedview859"
     inkscape:window-height="1721"
     inkscape:window-width="3200"
     inkscape:pageshadow="2"
     inkscape:pageopacity="0"
     guidetolerance="10"
     gridtolerance="10"
     objecttolerance="10"
     borderopacity="1"
     bordercolor="#666666"
     pagecolor="#ffffff"
     inkscape:document-rotation="0" />
  <rect
     style="fill:#646464;fill-opacity:1;stroke:none;stroke-width:0;stroke-miterlimit:4;stroke-dasharray:none"
     id="rect897-9"
     width="11.90625"
     height="17.594791"
     x="6.1260419"
     y="7.8435416" />
  <path
     sodipodi:nodetypes="cccccc"
     id="path5041"
     d="M 7.4489584,7.8435417 V 1.6258333 C 7.3869012,0.76006275 7.5561337,0.29807337 8.7718751,0.30291667 h 6.6145829 c 0.897755,-0.0386918 1.350479,0.16328002 1.322917,1.32291663 v 6.2177084"
     style="fill:none;stroke:#636363;stroke-width:2.64583;stroke-linecap:butt;stroke-linejoin:miter;stroke-miterlimit:4;stroke-dasharray:none;stroke-opacity:1" />
  <path
     d="m 8.1104167,25.438334 c 0,-2.191889 1.7767527,-3.968751 3.9687503,-3.968751 2.191997,0 3.96875,1.776841 3.96875,3.968751 0,2.192108 -1.776753,3.968749 -3.96875,3.968749 -2.1919976,0 -3.9687503,-1.776841 -3.9687503,-3.968749 z"
     style="fill:#636363;fill-opacity:1;stroke:none;stroke-width:1.5965;stroke-miterlimit:4;stroke-dasharray:none"
     id="path10" />
  <path
     id="path10-1"
     style="fill:#ffffff;fill-opacity:1;stroke:none;stroke-width:1.06434;stroke-miterlimit:3.864;stroke-dasharray:none"
     d="m 9.4333337,25.438334 c 0,-1.461259 1.1845003,-2.645834 2.6458333,-2.645834 1.461331,0 2.645833,1.184561 2.645833,2.645834 0,1.461405 -1.184502,2.645833 -2.645833,2.645833 -1.461333,0 -2.6458333,-1.184561 -2.6458333,-2.645833 z" />
  <path
     sodipodi:nodetypes="ccccccc"
     id="path5043"
     d="m 17.731205,12.267196 h 0.73436 c 0.84353,-0.03603 1.51767,0.179647 1.468717,1.469771 v 5.879081 c 0.03068,2.988439 4.131165,2.901 3.8191,0 L 22.13736,9.6201321 c -0.438669,-2.559522 -3.162196,-4.404324 -4.856523,-5.291667"
     style="fill:none;stroke:#636363;stroke-width:1.32292;stroke-linecap:butt;stroke-linejoin:miter;stroke-miterlimit:4;stroke-dasharray:none;stroke-opacity:1" />
</svg>
